<svg width="222" height="237" viewBox="0 0 222 237" fill="none" xmlns="http://www.w3.org/2000/svg">
<path d="M82.326 240.136C80.2863 244.416 74.066 244.01 72.6001 239.501L7.88487 40.4524C7.57883 39.5111 7.61529 38.4919 7.98784 37.5748L19.1854 10.0116C20.1623 7.60691 23.0657 6.65636 25.2756 8.0177L207.831 120.476C209.632 121.585 210.326 123.861 209.451 125.786L198.719 149.395C198.181 150.58 197.123 151.448 195.856 151.745L170.76 157.627C167.756 158.331 166.513 161.926 168.44 164.335L213.069 220.121C214.044 221.34 214.262 223 213.635 224.429L202.015 250.921C201.703 251.633 201.2 252.244 200.561 252.687L183.321 264.621C178.249 268.133 171.311 267.035 167.571 262.128L112.841 190.322C110.937 187.824 107.064 188.225 105.713 191.061L92.6695 218.431L82.326 240.136Z" fill="#368EF3"/>
<path fill-rule="evenodd" clip-rule="evenodd" d="M65.6145 241.772L0.899339 42.7238C0.0577152 40.1352 0.158 37.3324 1.18251 34.8105L12.3801 7.24724C15.0666 0.634347 23.0508 -1.97969 29.128 1.76401L211.683 114.222C216.635 117.273 218.544 123.531 216.137 128.826L205.406 152.435C203.925 155.693 201.017 158.08 197.532 158.897L177.29 163.641L218.804 215.533C221.486 218.885 222.086 223.448 220.362 227.38L208.742 253.872C207.884 255.829 206.499 257.51 204.742 258.726L187.502 270.661C179.202 276.408 167.849 274.611 161.729 266.581L110.125 198.877L88.9568 243.296C84.0615 253.568 69.1328 252.593 65.6145 241.772ZM72.6 239.501C74.0659 244.01 80.2862 244.416 82.3259 240.136L105.713 191.061C107.064 188.226 110.937 187.824 112.841 190.322L167.571 262.129C171.311 267.035 178.249 268.134 183.321 264.622L200.561 252.687C201.2 252.244 201.703 251.633 202.015 250.922L213.635 224.429C214.262 223 214.044 221.34 213.069 220.121L168.44 164.336C166.512 161.926 167.756 158.331 170.76 157.627L195.856 151.745C197.123 151.448 198.181 150.58 198.719 149.395L209.45 125.787C210.326 123.861 209.632 121.585 207.831 120.476L25.2755 8.01795C23.0656 6.65661 20.1622 7.60717 19.1853 10.0119L7.98774 37.5751C7.61519 38.4921 7.57872 39.5114 7.88477 40.4527L72.6 239.501Z" fill="#F2F7FC"/>
<path d="M93.9207 215.124C92.2393 218.471 87.3487 218.107 86.1816 214.548L20.3314 13.7296C19.1112 10.0085 23.2007 6.79142 26.5299 8.85339L207.026 120.645C210.214 122.62 209.41 127.465 205.755 128.304L156.668 139.579C153.657 140.27 152.399 143.868 154.324 146.284L212.937 219.879C214.43 221.754 214.052 224.496 212.108 225.898L187.747 243.466C185.935 244.773 183.416 244.431 182.018 242.688L123.422 169.642C121.509 167.258 117.77 167.653 116.397 170.385L93.9207 215.124Z" fill="#001022"/>
<path fill-rule="evenodd" clip-rule="evenodd" d="M79.2021 216.837L13.3519 16.0183C9.9964 5.78529 21.2424 -3.06162 30.3977 2.60879L210.894 114.4C219.66 119.83 217.45 133.155 207.4 135.463L163.184 145.619L218.682 215.303C222.789 220.459 221.751 228.001 216.405 231.856L192.043 249.424C187.059 253.018 180.133 252.078 176.288 247.284L120.76 178.063L100.484 218.422C95.8605 227.626 82.4115 226.624 79.2021 216.837ZM86.1818 214.548C87.3489 218.107 92.2394 218.471 93.9208 215.124L116.398 170.385C117.77 167.653 121.509 167.258 123.422 169.642L182.018 242.688C183.416 244.431 185.935 244.773 187.747 243.466L212.109 225.898C214.053 224.496 214.43 221.754 212.937 219.879L154.324 146.284C152.399 143.868 153.657 140.27 156.668 139.579L205.755 128.304C209.41 127.465 210.214 122.62 207.026 120.645L26.5301 8.85341C23.2009 6.79144 19.1114 10.0085 20.3316 13.7296L86.1818 214.548Z" fill="#F2F7FC"/>
</svg>
