<svg width="263" height="223" viewBox="0 0 263 223" fill="none" xmlns="http://www.w3.org/2000/svg">
<path fill-rule="evenodd" clip-rule="evenodd" d="M0 100.093C0 155.292 44.4547 200.141 99.1683 200.141C153.882 200.141 198.337 155.292 198.337 100.093C198.337 44.8941 153.882 0.0449219 99.1683 0.0449219C44.4547 0.0449219 0 44.8941 0 100.093ZM24.8721 99.7792C24.8721 58.3799 58.1354 24.8214 99.1705 24.8214C140.206 24.8214 173.469 58.3799 173.469 99.7792C173.469 141.178 140.206 174.737 99.1705 174.737C58.1354 174.737 24.8721 141.178 24.8721 99.7792Z" fill="#F2F7FC"/>
<path fill-rule="evenodd" clip-rule="evenodd" d="M64.6631 159.996C64.6631 215.196 109.118 260.045 163.831 260.045C218.545 260.045 263 215.196 263 159.996C263 104.797 218.545 59.9482 163.831 59.9482C109.118 59.9482 64.6631 104.797 64.6631 159.996ZM89.5352 159.683C89.5352 118.283 122.798 84.7249 163.834 84.7249C204.869 84.7249 238.132 118.283 238.132 159.683C238.132 201.082 204.869 234.64 163.834 234.64C122.798 234.64 89.5352 201.082 89.5352 159.683Z" fill="#FBC3CD"/>
<path d="M99.1682 200.141C44.4547 200.141 0 155.292 0 100.093C0 44.8941 44.4547 0.0449219 99.1682 0.0449219C119.686 0.0449219 139.582 6.31754 156.369 18.2355L142.069 38.6215C129.634 29.5262 114.712 24.8218 99.1682 24.8218C58.1331 24.8218 24.8698 58.3803 24.8698 99.7795C24.8698 141.179 58.1331 174.737 99.1682 174.737C125.592 174.737 149.53 160.938 162.897 138.356L184.347 151.215C166.628 181.324 133.986 200.141 99.1682 200.141Z" fill="#F2F7FC"/>
</svg>
