<svg width="160" height="222" viewBox="0 0 160 222" fill="none" xmlns="http://www.w3.org/2000/svg">
<path fill-rule="evenodd" clip-rule="evenodd" d="M150.525 115.215C157.401 103.374 159.259 89.8412 159.259 79.3158C159.259 35.523 123.579 0 79.5366 0C35.4942 0 0 35.523 0 79.3158C0 89.2773 2.41583 103.938 8.73416 115.215C30.2908 153.745 79.5366 230.054 79.5366 230.054C79.5366 230.054 128.411 153.181 150.525 115.215ZM79.5366 108.824C98.12 108.824 113.358 93.6002 113.358 74.805C113.358 56.0098 98.3058 40.7856 79.5366 40.7856C60.9533 40.7856 45.715 56.0098 45.715 74.805C45.715 93.7882 60.9533 108.824 79.5366 108.824Z" fill="#F2F7FC"/>
</svg>
